<svg width="76" height="21" viewBox="0 0 76 21" fill="none" xmlns="http://www.w3.org/2000/svg">
<g opacity="0.3" filter="url(#filter0_d_1_772)">
<path d="M15.3594 9.53906C15.3594 9.78906 15.3151 10.0573 15.2266 10.3438C15.1432 10.6302 15.0026 10.8958 14.8047 11.1406C14.612 11.3854 14.3594 11.5911 14.0469 11.7578C13.7344 11.9193 13.3516 12 12.8984 12H5.1875C5.04167 12 4.90625 11.974 4.78125 11.9219C4.65625 11.8698 4.54688 11.7995 4.45312 11.7109C4.36458 11.6172 4.29427 11.5078 4.24219 11.3828C4.1901 11.2578 4.16406 11.1224 4.16406 10.9766V1.82031C4.16406 1.67969 4.1901 1.54688 4.24219 1.42188C4.29427 1.29688 4.36458 1.1875 4.45312 1.09375C4.54688 1 4.65625 0.927083 4.78125 0.875C4.90625 0.822917 5.04167 0.796875 5.1875 0.796875H11.9844C12.2344 0.796875 12.5026 0.841146 12.7891 0.929688C13.0755 1.01823 13.3411 1.16146 13.5859 1.35938C13.8359 1.55208 14.0417 1.80469 14.2031 2.11719C14.3698 2.42969 14.4531 2.8125 14.4531 3.26562V3.64844C14.4531 4.00781 14.3932 4.39583 14.2734 4.8125C14.1536 5.22396 13.9609 5.61458 13.6953 5.98438C13.9245 6.125 14.138 6.29427 14.3359 6.49219C14.5391 6.6901 14.7161 6.91927 14.8672 7.17969C15.0182 7.4401 15.138 7.73438 15.2266 8.0625C15.3151 8.39062 15.3594 8.7526 15.3594 9.14844V9.53906ZM13.3281 9.14844C13.3281 8.88281 13.2865 8.64583 13.2031 8.4375C13.1198 8.22396 13.0026 8.04167 12.8516 7.89062C12.7005 7.73958 12.5182 7.625 12.3047 7.54688C12.0911 7.46354 11.8516 7.42188 11.5859 7.42188H7.00781V5.375H10.6719C10.9375 5.375 11.1771 5.33594 11.3906 5.25781C11.6042 5.17448 11.7865 5.05729 11.9375 4.90625C12.0885 4.75521 12.2031 4.57552 12.2812 4.36719C12.3646 4.15365 12.4062 3.91406 12.4062 3.64844V3.26562C12.4062 2.97396 12.2656 2.82812 11.9844 2.82812H6.19531V9.96875H12.8984C12.9349 9.96875 12.9792 9.96615 13.0312 9.96094C13.0833 9.95573 13.1302 9.9401 13.1719 9.91406C13.2135 9.88802 13.25 9.84375 13.2812 9.78125C13.3125 9.71875 13.3281 9.63281 13.3281 9.52344V9.14844ZM28.8906 7.46875C28.8906 8.15104 28.7734 8.77865 28.5391 9.35156C28.3047 9.92448 27.9792 10.4193 27.5625 10.8359C27.1458 11.2526 26.651 11.5781 26.0781 11.8125C25.5104 12.0417 24.8906 12.1562 24.2188 12.1562H21.4688C20.7969 12.1562 20.1745 12.0417 19.6016 11.8125C19.0286 11.5781 18.5339 11.2526 18.1172 10.8359C17.7005 10.4193 17.3724 9.92448 17.1328 9.35156C16.8984 8.77865 16.7812 8.15104 16.7812 7.46875V5.32812C16.7812 4.65104 16.8984 4.02604 17.1328 3.45312C17.3724 2.875 17.7005 2.38021 18.1172 1.96875C18.5339 1.55208 19.0286 1.22656 19.6016 0.992188C20.1745 0.757812 20.7969 0.640625 21.4688 0.640625H24.2188C24.8906 0.640625 25.5104 0.757812 26.0781 0.992188C26.651 1.22656 27.1458 1.55208 27.5625 1.96875C27.9792 2.38021 28.3047 2.875 28.5391 3.45312C28.7734 4.02604 28.8906 4.65104 28.8906 5.32812V7.46875ZM26.8594 5.32812C26.8594 4.92708 26.7943 4.5651 26.6641 4.24219C26.5391 3.91406 26.3594 3.63542 26.125 3.40625C25.8958 3.17188 25.6172 2.99219 25.2891 2.86719C24.9661 2.73698 24.6094 2.67188 24.2188 2.67188H21.4688C21.0729 2.67188 20.7109 2.73698 20.3828 2.86719C20.0599 2.99219 19.7812 3.17188 19.5469 3.40625C19.3125 3.63542 19.1302 3.91406 19 4.24219C18.875 4.5651 18.8125 4.92708 18.8125 5.32812V7.46875C18.8125 7.86979 18.875 8.23438 19 8.5625C19.1302 8.88542 19.3125 9.16406 19.5469 9.39844C19.7812 9.6276 20.0599 9.80729 20.3828 9.9375C20.7109 10.0625 21.0729 10.125 21.4688 10.125H24.2031C24.599 10.125 24.9583 10.0625 25.2812 9.9375C25.6094 9.80729 25.8906 9.6276 26.125 9.39844C26.3594 9.16406 26.5391 8.88542 26.6641 8.5625C26.7943 8.23438 26.8594 7.86979 26.8594 7.46875V5.32812ZM42.0938 11.1328C42.0938 11.2786 42.0651 11.4141 42.0078 11.5391C41.9557 11.6641 41.8828 11.7734 41.7891 11.8672C41.7005 11.9557 41.5938 12.026 41.4688 12.0781C41.3438 12.1302 41.2109 12.1562 41.0703 12.1562C40.9453 12.1562 40.8177 12.1328 40.6875 12.0859C40.5625 12.0391 40.4505 11.9635 40.3516 11.8594L32.9297 4.10938V12H30.8984V1.66406C30.8984 1.45573 30.9557 1.26823 31.0703 1.10156C31.1901 0.929688 31.3411 0.802083 31.5234 0.71875C31.7161 0.640625 31.9141 0.622396 32.1172 0.664062C32.3203 0.700521 32.4948 0.794271 32.6406 0.945312L40.0625 8.6875V0.796875H42.0938V11.1328ZM54.0469 1.40625C54.125 1.58854 54.1484 1.78125 54.1172 1.98438C54.0859 2.18229 54.0026 2.35156 53.8672 2.49219L47.1641 9.96875H54.0312V12H44.875C44.6771 12 44.4922 11.9453 44.3203 11.8359C44.1536 11.7214 44.0286 11.5729 43.9453 11.3906C43.8568 11.2083 43.8281 11.0182 43.8594 10.8203C43.8958 10.6224 43.9792 10.4505 44.1094 10.3047L50.8281 2.82812H43.9453V0.796875H53.1172C53.3151 0.796875 53.4974 0.854167 53.6641 0.96875C53.8359 1.07812 53.9635 1.22396 54.0469 1.40625ZM66.875 12H64.8438V9.25H57.7031V12H55.6719V6.39844C55.6719 5.58073 55.8125 4.82812 56.0938 4.14062C56.375 3.45312 56.7656 2.86198 57.2656 2.36719C57.7656 1.8724 58.3568 1.48698 59.0391 1.21094C59.7214 0.934896 60.4661 0.796875 61.2734 0.796875H65.8516C65.9922 0.796875 66.125 0.822917 66.25 0.875C66.375 0.927083 66.4844 1 66.5781 1.09375C66.6719 1.1875 66.7448 1.29688 66.7969 1.42188C66.849 1.54688 66.875 1.67969 66.875 1.82031V12ZM57.7031 7.21875H64.8438V2.82812H61.2734C61.2109 2.82812 61.0781 2.83854 60.875 2.85938C60.6771 2.875 60.4453 2.91927 60.1797 2.99219C59.9193 3.0651 59.6432 3.17708 59.3516 3.32812C59.0599 3.47917 58.7917 3.6875 58.5469 3.95312C58.3021 4.21875 58.099 4.55208 57.9375 4.95312C57.7812 5.34896 57.7031 5.83073 57.7031 6.39844V7.21875ZM71.2891 12H69.2578V0.796875H71.2891V12Z" fill="white"/>
</g>
<defs>
<filter id="filter0_d_1_772" x="0.164062" y="0.601562" width="75.125" height="19.5547" filterUnits="userSpaceOnUse" color-interpolation-filters="sRGB">
<feFlood flood-opacity="0" result="BackgroundImageFix"/>
<feColorMatrix in="SourceAlpha" type="matrix" values="0 0 0 0 0 0 0 0 0 0 0 0 0 0 0 0 0 0 127 0" result="hardAlpha"/>
<feOffset dy="4"/>
<feGaussianBlur stdDeviation="2"/>
<feComposite in2="hardAlpha" operator="out"/>
<feColorMatrix type="matrix" values="0 0 0 0 0 0 0 0 0 0 0 0 0 0 0 0 0 0 0.25 0"/>
<feBlend mode="normal" in2="BackgroundImageFix" result="effect1_dropShadow_1_772"/>
<feBlend mode="normal" in="SourceGraphic" in2="effect1_dropShadow_1_772" result="shape"/>
</filter>
</defs>
</svg>
