<svg width="75" height="12" viewBox="0 0 75 12" fill="none" xmlns="http://www.w3.org/2000/svg">
<path d="M7.5 0L9.18386 4.1459H14.6329L10.2245 6.7082L11.9084 10.8541L7.5 8.2918L3.09161 10.8541L4.77547 6.7082L0.367076 4.1459H5.81614L7.5 0Z" fill="#D9D9D9"/>
<path d="M22.5 0L24.1839 4.1459H29.6329L25.2245 6.7082L26.9084 10.8541L22.5 8.2918L18.0916 10.8541L19.7755 6.7082L15.3671 4.1459H20.8161L22.5 0Z" fill="#D9D9D9"/>
<path d="M37.5 0L39.1839 4.1459H44.6329L40.2245 6.7082L41.9084 10.8541L37.5 8.2918L33.0916 10.8541L34.7755 6.7082L30.3671 4.1459H35.8161L37.5 0Z" fill="#D9D9D9"/>
<path d="M52.5 0L54.1839 4.1459H59.6329L55.2245 6.7082L56.9084 10.8541L52.5 8.2918L48.0916 10.8541L49.7755 6.7082L45.3671 4.1459H50.8161L52.5 0Z" fill="#D9D9D9"/>
<path d="M67.5 0L69.1839 4.1459H74.6329L70.2245 6.7082L71.9084 10.8541L67.5 8.2918L63.0916 10.8541L64.7755 6.7082L60.3671 4.1459H65.8161L67.5 0Z" fill="#D9D9D9"/>
</svg>
